#!OML:ASF X:\für Bonn\!DataBase\2005_08_10_Bjorn_Final\c3d\bjorn.ASF
:FULLY-SPECIFIED
:DEGREES
733
root 0.160936 1.54704 19.9769 -274.537 -3.7832 -529.795
lowerback 2.98478 -1.35979 -0.787635
upperback 3.47391 -1.89996 -1.61804
thorax 1.86199 -0.991794 -1.19504
lowerneck -16.584 -3.46734 -0.349221
upperneck 10.5168 -5.0482 2.68666
head 5.96859 -2.29218 0.409294
rclavicle -4.77083e-015 2.54444e-014
rhumerus -44.2151 29.9396 -82.2802
rradius 80.6387
rwrist -6.98071
rhand -8.4541 10.5388
rfingers 7.12502
rthumb 17.4719 -18.696
lclavicle -4.77083e-015 2.54444e-014
lhumerus -42.1205 -45.2668 85.6505
lradius 81.6304
lwrist -10.8162
lhand -21.2843 -373.93
lfingers 7.12502
lthumb 5.09984 15.9888
rfemur 1.01475 -16.8922 5.65728
rtibia 22.2665
rfoot 10.3729 -2.2166
rtoes 14.9012
lfemur -14.0814 -9.47397 -17.7411
ltibia 35.563
lfoot 14.3654 3.01754
ltoes -13.5888
734
root 0.148942 1.54576 19.9635 -274.448 -3.71657 -529.676
lowerback 2.86071 -1.41061 -0.64339
upperback 3.4621 -1.96108 -1.61262
thorax 1.91378 -1.01795 -1.27269
lowerneck -16.6935 -3.43941 -0.232078
upperneck 10.6417 -5.02562 2.58316
head 6.02023 -2.28133 0.357122
rclavicle 7.95139e-016 -8.44835e-015
rhumerus -44.3515 30.1976 -82.4536
rradius 81.262
rwrist -7.49231
rhand -8.63041 10.5186
rfingers 7.12502
rthumb 17.3022 -18.7313
lclavicle 7.95139e-016 -8.44835e-015
lhumerus -42.2245 -45.4702 85.7697
lradius 82.3262
lwrist -10.018
lhand -20.7389 -373.803
lfingers 7.12502
lthumb 5.62642 16.1026
rfemur 0.786026 -16.9626 5.7104
rtibia 22.5484
rfoot 10.4265 -2.20911
rtoes 15.079
lfemur -13.6183 -9.3871 -17.7098
ltibia 34.5834
lfoot 14.1666 2.05124
ltoes -14.0071
735
root 0.137408 1.54485 19.9499 -274.369 -3.65216 -529.554
lowerback 2.73467 -1.45745 -0.491714
upperback 3.45967 -2.01749 -1.61697
thorax 1.9756 -1.04163 -1.36505
lowerneck -16.7777 -3.42342 -0.127268
upperneck 10.7258 -5.0147 2.47865
head 6.05518 -2.27763 0.306209
rclavicle 2.38542e-014 -1.3418e-014
rhumerus -44.4692 30.4427 -82.6397
rradius 81.8751
rwrist -8.0702
rhand -8.74162 10.5534
rfingers 7.12502
rthumb 17.1951 -18.7058
lclavicle 2.38542e-014 -1.3418e-014
lhumerus -42.2923 -45.6658 85.853
lradius 83.0176
lwrist -9.26499
lhand -20.183 -373.665
lfingers 7.12502
lthumb 6.16313 16.2257
rfemur 0.572784 -17.0074 5.75974
rtibia 22.8248
rfoot 10.4965 -2.22021
rtoes 15.3526
lfemur -13.1779 -9.28925 -17.6831
ltibia 33.6786
lfoot 13.9433 1.08187
ltoes -15.043
736
root 0.125803 1.5438 19.9381 -274.28 -3.5869 -529.438
lowerback 2.60163 -1.51264 -0.363852
upperback 3.453 -2.08566 -1.59657
thorax 2.03818 -1.07177 -1.41892
lowerneck -16.8894 -3.39498 -0.0547335
upperneck 10.836 -4.98171 2.38614
head 6.10393 -2.26259 0.265758
rclavicle 2.14687e-014 -9.59136e-015
rhumerus -44.6101 30.7561 -82.8178
rradius 82.5295
rwrist -8.68536
rhand -8.91882 10.5457
rfingers 7.12502
rthumb 17.0246 -18.7283
lclavicle 2.14687e-014 -9.59136e-015
lhumerus -42.3848 -45.8283 85.9844
lradius 83.7344
lwrist -8.53621
lhand -19.6514 -373.485
lfingers 7.12502
lthumb 6.67639 16.3894
rfemur 0.359194 -17.0471 5.81998
rtibia 23.0823
rfoot 10.5318 -2.24331
rtoes 15.4731
lfemur -12.7921 -9.17439 -17.6499
ltibia 32.8547
lfoot 13.678 0.114432
ltoes -15.8896
737
root 0.114325 1.54282 19.9255 -274.188 -3.53838 -529.324
lowerback 2.47171 -1.55509 -0.227368
upperback 3.43872 -2.13689 -1.60477
thorax 2.08998 -1.09284 -1.50703
lowerneck -17.0073 -3.38742 0.0101945
upperneck 10.9874 -4.9864 2.34603
head 6.16914 -2.26221 0.238658
rclavicle 1.43125e-014 -2.13694e-015
rhumerus -44.7816 31.0358 -83.0409
rradius 83.1772
rwrist -9.28255
rhand -9.11345 10.5023
rfingers 7.12502
rthumb 16.8372 -18.7877
lclavicle 1.43125e-014 -2.13694e-015
lhumerus -42.5025 -46.0669 86.099
lradius 84.4782
lwrist -7.7618
lhand -19.1091 -373.275
lfingers 7.12502
lthumb 7.1998 16.5825
rfemur 0.144979 -17.081 5.85949
rtibia 23.3286
rfoot 10.5454 -2.28817
rtoes 15.5961
lfemur -12.443 -9.04138 -17.6358
ltibia 32.1079
lfoot 13.3866 -0.841221
ltoes -16.7543
738
root 0.102969 1.54142 19.9129 -274.135 -3.47357 -529.225
lowerback 2.37649 -1.60368 -0.101651
upperback 3.44895 -2.19867 -1.58438
thorax 2.14859 -1.12032 -1.55934
lowerneck -17.1545 -3.36203 0.0620118
upperneck 11.1222 -4.95901 2.28449
head 6.23327 -2.24781 0.209872
rclavicle 1.11319e-014 -6.65929e-015
rhumerus -44.9177 31.3627 -83.2284
rradius 83.8466
rwrist -9.89091
rhand -9.29175 10.4946
rfingers 7.12502
rthumb 16.6656 -18.81
lclavicle 1.11319e-014 -6.65929e-015
lhumerus -42.6001 -46.2413 86.2448
lradius 85.203
lwrist -7
lhand -18.6324 -373.085
lfingers 7.12502
lthumb 7.65997 16.756
rfemur -0.0137055 -17.1272 5.90446
rtibia 23.5552
rfoot 10.5914 -2.2794
rtoes 15.6573
lfemur -12.0891 -8.87355 -17.6034
ltibia 31.4465
lfoot 13.0904 -1.76426
ltoes -17.2194
739
root 0.0926415 1.53978 19.9012 -274.064 -3.40959 -529.139
lowerback 2.27511 -1.63831 0.0447912
upperback 3.44012 -2.24103 -1.59375
thorax 2.18942 -1.13696 -1.65378
lowerneck -17.2639 -3.35151 0.129936
upperneck 11.2626 -4.96273 2.25731
head 6.29402 -2.24615 0.186691
rclavicle -1.59028e-015 1.98785e-014
rhumerus -45.0735 31.6249 -83.4745
rradius 84.5185
rwrist -10.5326
rhand -9.42367 10.4411
rfingers 7.12502
rthumb 16.5386 -18.8741
lclavicle -1.59028e-015 1.98785e-014
lhumerus -42.7269 -46.4677 86.3755
lradius 85.9469
lwrist -6.23083
lhand -18.0878 -372.892
lfingers 7.12502
lthumb 8.18564 16.9292
rfemur -0.17599 -17.1099 5.96832
rtibia 23.747
rfoot 10.566 -2.34788
rtoes 15.8393
lfemur -11.7953 -8.70169 -17.5629
ltibia 30.8733
lfoot 12.7974 -2.53496
ltoes -17.2042
740
root 0.082502 1.53856 19.8913 -274.003 -3.3471 -529.057
lowerback 2.17188 -1.68037 0.15663
upperback 3.44985 -2.29491 -1.57082
thorax 2.25248 -1.16071 -1.69633
lowerneck -17.3887 -3.33645 0.118102
upperneck 11.3789 -4.95152 2.29923
head 6.35344 -2.23495 0.199823
rclavicle 8.74653e-015 7.25564e-015
rhumerus -45.211 31.9671 -83.6885
rradius 85.2008
rwrist -11.1825
rhand -9.62303 10.3641
rfingers 7.12502
rthumb 16.3466 -18.967
lclavicle 8.74653e-015 7.25564e-015
lhumerus -42.8145 -46.6458 86.5305
lradius 86.6715
lwrist -5.44195
lhand -17.6187 -372.811
lfingers 7.12502
lthumb 8.63827 16.9922
rfemur -0.307549 -17.1328 6.02358
rtibia 23.8986
rfoot 10.5969 -2.35917
rtoes 15.6822
lfemur -11.5211 -8.44437 -17.5198
ltibia 30.3863
lfoot 12.5755 -3.26969
ltoes -16.8251
